<?xml version="1.0" encoding="UTF-8"?><svg xmlns="http://www.w3.org/2000/svg" viewBox="0 0 145 160"><defs><style>.b{mix-blend-mode:multiply;opacity:.07;}.c{fill:#43883e;}.d{isolation:isolate;}.e{fill:#fffedb;}.f{fill:#5aa854;}.g{fill:#d3562c;}.h{fill:#eb743b;}</style></defs><g class="d"><g id="a"><g><polygon class="h" points="75 8 75 152 136 117 136 43 75 8"/><polygon class="f" points="70 8 9 43 9 117 70 152 70 8"/><g><g class="b"><path d="M92.3,99.73c.39-.64,1.07-1.03,1.82-1.03,.38,0,.75,.1,1.08,.3,1,.6,1.33,1.9,.74,2.9-.38,.65-1.06,1.03-1.82,1.03-.38,0-.75-.1-1.08-.3-.48-.29-.83-.75-.96-1.29-.14-.55-.06-1.12,.23-1.6Zm12.6,22.36c-.49,.42-1.02,.51-1.37,.51-.62,0-1.21-.27-1.61-.73-.76-.88-.65-2.22,.23-2.98,.49-.42,1.02-.51,1.37-.51,.62,0,1.2,.27,1.61,.74,.37,.43,.55,.98,.5,1.54-.04,.56-.3,1.07-.73,1.44Z"/><path d="M84,53.61c.07,.02,.14,.03,.21,.05-.07-.01-.14-.03-.21-.05Z"/><path d="M95.38,63.26c.17-.27,.39-.49,.67-.66,.34-.21,.72-.32,1.12-.32s.79,.11,1.12,.32c.99,.63,1.28,1.94,.66,2.92-.39,.62-1.06,.99-1.8,.99-.4,0-.79-.11-1.12-.33-.98-.62-1.28-1.94-.66-2.92Zm6.38-20.19c-.6,.95-1.94,1.27-2.91,.65l-.1-.06c-.91-.65-1.16-1.9-.56-2.85,.39-.61,1.05-.98,1.78-.98,.4,0,.79,.11,1.12,.33,.48,.3,.81,.78,.94,1.33,.12,.55,.03,1.11-.28,1.58Z"/><path d="M118.53,54.67c.39-.61,1.05-.98,1.78-.98,.4,0,.79,.11,1.12,.33,.48,.3,.81,.78,.94,1.33,.12,.55,.02,1.11-.28,1.58-.6,.95-1.94,1.27-2.91,.65l-.09-.06c-.92-.65-1.16-1.9-.56-2.85Zm0,23.46c.39-.61,1.05-.98,1.78-.98,.4,0,.79,.11,1.12,.33,.48,.3,.81,.77,.94,1.33,.12,.55,.02,1.11-.28,1.58-.6,.95-1.94,1.27-2.91,.65l-.09-.06c-.92-.65-1.16-1.9-.56-2.85Zm0,26.3c.39-.61,1.05-.98,1.78-.98,.4,0,.79,.11,1.12,.33,.48,.3,.81,.78,.94,1.33,.12,.55,.02,1.11-.28,1.58-.6,.95-1.94,1.27-2.91,.65l-.09-.06c-.92-.65-1.16-1.9-.56-2.85Z"/><path d="M108.18,114.1c-1.17-1.36-2.86-2.14-4.65-2.14-1.46,0-2.88,.53-3.98,1.48-1.61,1.38-2.33,3.43-2.09,5.4-1.95,.7-4.26,1.37-5.33,1.33-.82-.04-1.3-.35-2.22-.97-1.17-.79-2.42-1.51-4.15-1.85,2.94-2.76,6.01-6.83,8.58-12.83,2.06-.08,3.98-1.19,5.04-2.97,1.72-2.9,.77-6.66-2.12-8.39-.95-.57-2.03-.86-3.13-.86-2.15,0-4.16,1.14-5.26,2.99-.84,1.41-1.08,3.05-.68,4.64,.35,1.39,1.16,2.59,2.3,3.43-4.05,9.22-9.22,13.08-12.57,14.68-.13,.04-.25,.1-.36,.17-1.19,.53-2.05,.7-2.56,.81v4c.28-.03,1.88-.12,4.25-1.19,5.35-1.36,6.84-.35,8.41,.71,1.02,.69,2.29,1.55,4.26,1.66,.1,0,.2,0,.31,0,2.11,0,5.17-1.02,7.02-1.72,1.14,1.12,2.68,1.75,4.29,1.75h0c1.46,0,2.88-.52,3.98-1.48,1.24-1.06,1.99-2.55,2.12-4.18,.12-1.63-.39-3.21-1.46-4.45Zm-15.87-16.78c.39-.64,1.07-1.03,1.82-1.03,.38,0,.75,.1,1.08,.3,1,.6,1.33,1.9,.74,2.9-.38,.65-1.06,1.03-1.82,1.03-.38,0-.75-.1-1.08-.3-.48-.29-.83-.75-.96-1.29-.14-.55-.06-1.12,.23-1.6Zm12.6,22.36c-.49,.42-1.02,.51-1.37,.51-.62,0-1.21-.27-1.61-.73-.76-.88-.65-2.22,.23-2.98,.49-.42,1.02-.51,1.37-.51,.62,0,1.2,.27,1.61,.74,.37,.43,.55,.98,.5,1.54-.04,.56-.3,1.07-.73,1.44Z"/><path d="M84,51.21c.07,.02,.14,.03,.21,.05-.07-.01-.14-.03-.21-.05Z"/><path d="M105.95,38.2c-.36-1.6-1.32-2.96-2.71-3.84-.98-.62-2.11-.94-3.26-.94-2.12,0-4.05,1.07-5.17,2.85-1.35,2.14-1.22,4.8,.14,6.76-3.65,4.12-8.71,4.31-9.94,4.29-3.69-1.6-7.23-2.16-10-2.32v4c2.44,.14,5.55,.69,8.75,2.14h.01c3.45,1.57,6.33,3.93,8.61,7.05-.14,.17-.26,.35-.38,.54-1.8,2.85-.94,6.64,1.9,8.44,.98,.62,2.11,.95,3.27,.95,2.11,0,4.05-1.07,5.18-2.85,1.81-2.85,.95-6.64-1.91-8.45-1.38-.87-3.09-1.11-4.67-.75-1.54-2.15-3.32-4.02-5.34-5.57,2.52-.78,5.4-2.27,7.78-5.1,.57,.17,1.17,.27,1.77,.27,2.12,0,4.05-1.07,5.17-2.85,.88-1.38,1.16-3.01,.8-4.6Zm-10.57,22.65c.17-.27,.39-.49,.67-.66,.34-.21,.72-.32,1.12-.32s.79,.11,1.12,.32c.99,.63,1.28,1.94,.66,2.92-.39,.62-1.06,.99-1.8,.99-.4,0-.79-.11-1.12-.33-.98-.62-1.28-1.94-.66-2.92Zm6.38-20.19c-.6,.95-1.94,1.27-2.91,.65l-.1-.06c-.91-.65-1.16-1.9-.56-2.85,.39-.61,1.05-.98,1.78-.98,.4,0,.79,.11,1.12,.33,.48,.3,.81,.78,.94,1.33,.12,.55,.03,1.11-.28,1.58Z"/><path d="M114.65,79.19c.42,1.04,1.14,1.96,2.11,2.65,.07,.05,.15,.11,.28,.19,.98,.62,2.11,.95,3.27,.95,2.12,0,4.05-1.07,5.17-2.85,.88-1.38,1.16-3.01,.8-4.6-.36-1.6-1.32-2.96-2.71-3.84-.98-.62-2.11-.94-3.27-.94-.12,0-.25,0-.38,.02-.71-3.16-.92-7.77,.04-11.26,.11,.01,.22,.02,.34,.02,2.12,0,4.05-1.07,5.17-2.85,.88-1.38,1.16-3.01,.8-4.6-.36-1.6-1.32-2.96-2.71-3.84-.98-.62-2.11-.94-3.27-.94-2.11,0-4.05,1.07-5.17,2.85-1.6,2.53-1.12,5.8,1.02,7.76,.02,.02,.05,.04,.07,.06-1.35,4.52-1.15,10.32-.04,14.42-.14,.13-.29,.25-.43,.4-.23,.25-.45,.53-.63,.82-.32,.5-.55,1.03-.71,1.58-3.37,.49-5.2,1.67-6.82,2.73-2.04,1.32-3.96,2.57-9.64,2.67-1.96-.23-3.55-.18-5.29-.12-1.43,.05-2.91,.11-4.85,0-1.33-.07-2.1-.88-3.46-2.42-1.8-2.05-4.22-4.65-9.37-5.02v4c3.29,.3,4.8,1.89,6.36,3.67,1.49,1.69,3.17,3.62,6.26,3.78,2.12,.11,3.76,.05,5.21,0,2.49-.09,4.45-.16,7.86,.68,2.61,.64,12.1,9.67,14.77,14.32-.11,.14-.22,.28-.31,.43-1.74,2.75-1.03,6.38,1.62,8.25,.07,.05,.15,.1,.28,.19,.98,.62,2.11,.95,3.27,.95,2.12,0,4.05-1.07,5.17-2.85,.88-1.37,1.16-3.01,.8-4.6-.36-1.6-1.32-2.96-2.71-3.84-.98-.62-2.11-.94-3.27-.94-.53,0-1.05,.07-1.54,.2-2.56-4.19-8.65-10.46-13.19-13.79,1.81-.63,3.05-1.43,4.21-2.19,1.43-.93,2.61-1.69,4.86-2.07Zm3.88-26.92c.39-.61,1.05-.98,1.78-.98,.4,0,.79,.11,1.12,.33,.48,.3,.81,.78,.94,1.33,.12,.55,.02,1.11-.28,1.58-.6,.95-1.94,1.27-2.91,.65l-.09-.06c-.92-.65-1.16-1.9-.56-2.85Zm0,23.46c.39-.61,1.05-.98,1.78-.98,.4,0,.79,.11,1.12,.33,.48,.3,.81,.77,.94,1.33,.12,.55,.02,1.11-.28,1.58-.6,.95-1.94,1.27-2.91,.65l-.09-.06c-.92-.65-1.16-1.9-.56-2.85Zm0,26.3c.39-.61,1.05-.98,1.78-.98,.4,0,.79,.11,1.12,.33,.48,.3,.81,.78,.94,1.33,.12,.55,.02,1.11-.28,1.58-.6,.95-1.94,1.27-2.91,.65l-.09-.06c-.92-.65-1.16-1.9-.56-2.85Z"/></g><g><g><path class="g" d="M108.18,117.1c-1.17-1.36-2.86-2.14-4.65-2.14-1.46,0-2.88,.53-3.98,1.48-1.61,1.38-2.33,3.43-2.09,5.4-1.95,.7-4.26,1.37-5.33,1.33-.82-.04-1.3-.35-2.22-.97-1.17-.79-2.42-1.51-4.15-1.85,2.94-2.76,6.01-6.83,8.58-12.83,2.06-.08,3.98-1.19,5.04-2.97,1.72-2.9,.77-6.66-2.12-8.39-.95-.57-2.03-.86-3.13-.86-2.15,0-4.16,1.14-5.26,2.99-.84,1.41-1.08,3.05-.68,4.64,.35,1.39,1.16,2.59,2.3,3.43-4.05,9.22-9.22,13.08-12.57,14.68-.13,.04-.25,.1-.36,.17-1.19,.53-2.05,.7-2.56,.81v4c.28-.03,1.88-.12,4.25-1.19,5.35-1.36,6.84-.35,8.41,.71,1.02,.69,2.29,1.55,4.26,1.66,.1,0,.2,0,.31,0,2.11,0,5.17-1.02,7.02-1.72,1.14,1.12,2.68,1.75,4.29,1.75h0c1.46,0,2.88-.52,3.98-1.48,1.24-1.06,1.99-2.55,2.12-4.18,.12-1.63-.39-3.21-1.46-4.45Zm-15.87-16.78c.39-.64,1.07-1.03,1.82-1.03,.38,0,.75,.1,1.08,.3,1,.6,1.33,1.9,.74,2.9-.38,.65-1.06,1.03-1.82,1.03-.38,0-.75-.1-1.08-.3-.48-.29-.83-.75-.96-1.29-.14-.55-.06-1.12,.23-1.6Zm12.6,22.36c-.49,.42-1.02,.51-1.37,.51-.62,0-1.21-.27-1.61-.73-.76-.88-.65-2.22,.23-2.98,.49-.42,1.02-.51,1.37-.51,.62,0,1.2,.27,1.61,.74,.37,.43,.55,.98,.5,1.54-.04,.56-.3,1.07-.73,1.44Z"/><path d="M84,53.61c.07,.02,.14,.03,.21,.05-.07-.01-.14-.03-.21-.05Z"/><path class="g" d="M105.95,41.21c-.36-1.6-1.32-2.96-2.71-3.84-.98-.62-2.11-.94-3.26-.94-2.12,0-4.05,1.07-5.17,2.85-1.35,2.14-1.22,4.8,.14,6.76-3.65,4.12-8.71,4.31-9.94,4.29-3.69-1.6-7.23-2.16-10-2.32v4c2.44,.14,5.55,.69,8.75,2.14h.01c3.45,1.57,6.33,3.93,8.61,7.05-.14,.17-.26,.35-.38,.54-1.8,2.85-.94,6.64,1.9,8.44,.98,.62,2.11,.95,3.27,.95,2.11,0,4.05-1.07,5.18-2.85,1.81-2.85,.95-6.64-1.91-8.45-1.38-.87-3.09-1.11-4.67-.75-1.54-2.15-3.32-4.02-5.34-5.57,2.52-.78,5.4-2.27,7.78-5.1,.57,.17,1.17,.27,1.77,.27,2.12,0,4.05-1.07,5.17-2.85,.88-1.38,1.16-3.01,.8-4.6Zm-10.57,22.65c.17-.27,.39-.49,.67-.66,.34-.21,.72-.32,1.12-.32s.79,.11,1.12,.32c.99,.63,1.28,1.94,.66,2.92-.39,.62-1.06,.99-1.8,.99-.4,0-.79-.11-1.12-.33-.98-.62-1.28-1.94-.66-2.92Zm6.38-20.19c-.6,.95-1.94,1.27-2.91,.65l-.1-.06c-.91-.65-1.16-1.9-.56-2.85,.39-.61,1.05-.98,1.78-.98,.4,0,.79,.11,1.12,.33,.48,.3,.81,.78,.94,1.33,.12,.55,.03,1.11-.28,1.58Z"/><path class="g" d="M114.65,82.19c.42,1.04,1.14,1.96,2.11,2.65,.07,.05,.15,.11,.28,.19,.98,.62,2.11,.95,3.27,.95,2.12,0,4.05-1.07,5.17-2.85,.88-1.38,1.16-3.01,.8-4.6-.36-1.6-1.32-2.96-2.71-3.84-.98-.62-2.11-.94-3.27-.94-.12,0-.25,0-.38,.02-.71-3.16-.92-7.77,.04-11.26,.11,.01,.22,.02,.34,.02,2.12,0,4.05-1.07,5.17-2.85,.88-1.38,1.16-3.01,.8-4.6-.36-1.6-1.32-2.96-2.71-3.84-.98-.62-2.11-.94-3.27-.94-2.11,0-4.05,1.07-5.17,2.85-1.6,2.53-1.12,5.8,1.02,7.76,.02,.02,.05,.04,.07,.06-1.35,4.52-1.15,10.32-.04,14.42-.14,.13-.29,.25-.43,.4-.23,.25-.45,.53-.63,.82-.32,.5-.55,1.03-.71,1.58-3.37,.49-5.2,1.67-6.82,2.73-2.04,1.32-3.96,2.57-9.64,2.67-1.96-.23-3.55-.18-5.29-.12-1.43,.05-2.91,.11-4.85,0-1.33-.07-2.1-.88-3.46-2.42-1.8-2.05-4.22-4.65-9.37-5.02v4c3.29,.3,4.8,1.89,6.36,3.67,1.49,1.69,3.17,3.62,6.26,3.78,2.12,.11,3.76,.05,5.21,0,2.49-.09,4.45-.16,7.86,.68,2.61,.64,12.1,9.67,14.77,14.32-.11,.14-.22,.28-.31,.43-1.74,2.75-1.03,6.38,1.62,8.25,.07,.05,.15,.1,.28,.19,.98,.62,2.11,.95,3.27,.95,2.12,0,4.05-1.07,5.17-2.85,.88-1.37,1.16-3.01,.8-4.6-.36-1.6-1.32-2.96-2.71-3.84-.98-.62-2.11-.94-3.27-.94-.53,0-1.05,.07-1.54,.2-2.56-4.19-8.65-10.46-13.19-13.79,1.81-.63,3.05-1.43,4.21-2.19,1.43-.93,2.61-1.69,4.86-2.07Zm3.88-26.92c.39-.61,1.05-.98,1.78-.98,.4,0,.79,.11,1.12,.33,.48,.3,.81,.78,.94,1.33,.12,.55,.02,1.11-.28,1.58-.6,.95-1.94,1.27-2.91,.65l-.09-.06c-.92-.65-1.16-1.9-.56-2.85Zm0,23.46c.39-.61,1.05-.98,1.78-.98,.4,0,.79,.11,1.12,.33,.48,.3,.81,.77,.94,1.33,.12,.55,.02,1.11-.28,1.58-.6,.95-1.94,1.27-2.91,.65l-.09-.06c-.92-.65-1.16-1.9-.56-2.85Zm0,26.3c.39-.61,1.05-.98,1.78-.98,.4,0,.79,.11,1.12,.33,.48,.3,.81,.78,.94,1.33,.12,.55,.02,1.11-.28,1.58-.6,.95-1.94,1.27-2.91,.65l-.09-.06c-.92-.65-1.16-1.9-.56-2.85Z"/></g><g><path class="e" d="M108.18,114.1c-1.17-1.36-2.86-2.14-4.65-2.14-1.46,0-2.88,.53-3.98,1.48-1.61,1.38-2.33,3.43-2.09,5.4-1.95,.7-4.26,1.37-5.33,1.33-.82-.04-1.3-.35-2.22-.97-1.17-.79-2.42-1.51-4.15-1.85,2.94-2.76,6.01-6.83,8.58-12.83,2.06-.08,3.98-1.19,5.04-2.97,1.72-2.9,.77-6.66-2.12-8.39-.95-.57-2.03-.86-3.13-.86-2.15,0-4.16,1.14-5.26,2.99-.84,1.41-1.08,3.05-.68,4.64,.35,1.39,1.16,2.59,2.3,3.43-4.05,9.22-9.22,13.08-12.57,14.68-.13,.04-.25,.1-.36,.17-1.19,.53-2.05,.7-2.56,.81v4c.28-.03,1.88-.12,4.25-1.19,5.35-1.36,6.84-.35,8.41,.71,1.02,.69,2.29,1.55,4.26,1.66,.1,0,.2,0,.31,0,2.11,0,5.17-1.02,7.02-1.72,1.14,1.12,2.68,1.75,4.29,1.75h0c1.46,0,2.88-.52,3.98-1.48,1.24-1.06,1.99-2.55,2.12-4.18,.12-1.63-.39-3.21-1.46-4.45Zm-15.87-16.78c.39-.64,1.07-1.03,1.82-1.03,.38,0,.75,.1,1.08,.3,1,.6,1.33,1.9,.74,2.9-.38,.65-1.06,1.03-1.82,1.03-.38,0-.75-.1-1.08-.3-.48-.29-.83-.75-.96-1.29-.14-.55-.06-1.12,.23-1.6Zm12.6,22.36c-.49,.42-1.02,.51-1.37,.51-.62,0-1.21-.27-1.61-.73-.76-.88-.65-2.22,.23-2.98,.49-.42,1.02-.51,1.37-.51,.62,0,1.2,.27,1.61,.74,.37,.43,.55,.98,.5,1.54-.04,.56-.3,1.07-.73,1.44Z"/><path class="e" d="M84,51.21c.07,.02,.14,.03,.21,.05-.07-.01-.14-.03-.21-.05Z"/><path class="e" d="M105.95,38.2c-.36-1.6-1.32-2.96-2.71-3.84-.98-.62-2.11-.94-3.26-.94-2.12,0-4.05,1.07-5.17,2.85-1.35,2.14-1.22,4.8,.14,6.76-3.65,4.12-8.71,4.31-9.94,4.29-3.69-1.6-7.23-2.16-10-2.32v4c2.44,.14,5.55,.69,8.75,2.14h.01c3.45,1.57,6.33,3.93,8.61,7.05-.14,.17-.26,.35-.38,.54-1.8,2.85-.94,6.64,1.9,8.44,.98,.62,2.11,.95,3.27,.95,2.11,0,4.05-1.07,5.18-2.85,1.81-2.85,.95-6.64-1.91-8.45-1.38-.87-3.09-1.11-4.67-.75-1.54-2.15-3.32-4.02-5.34-5.57,2.52-.78,5.4-2.27,7.78-5.1,.57,.17,1.17,.27,1.77,.27,2.12,0,4.05-1.07,5.17-2.85,.88-1.38,1.16-3.01,.8-4.6Zm-10.57,22.65c.17-.27,.39-.49,.67-.66,.34-.21,.72-.32,1.12-.32s.79,.11,1.12,.32c.99,.63,1.28,1.94,.66,2.92-.39,.62-1.06,.99-1.8,.99-.4,0-.79-.11-1.12-.33-.98-.62-1.28-1.94-.66-2.92Zm6.38-20.19c-.6,.95-1.94,1.27-2.91,.65l-.1-.06c-.91-.65-1.16-1.9-.56-2.85,.39-.61,1.05-.98,1.78-.98,.4,0,.79,.11,1.12,.33,.48,.3,.81,.78,.94,1.33,.12,.55,.03,1.11-.28,1.58Z"/><path class="e" d="M114.65,79.19c.42,1.04,1.14,1.96,2.11,2.65,.07,.05,.15,.11,.28,.19,.98,.62,2.11,.95,3.27,.95,2.12,0,4.05-1.07,5.17-2.85,.88-1.38,1.16-3.01,.8-4.6-.36-1.6-1.32-2.96-2.71-3.84-.98-.62-2.11-.94-3.27-.94-.12,0-.25,0-.38,.02-.71-3.16-.92-7.77,.04-11.26,.11,.01,.22,.02,.34,.02,2.12,0,4.05-1.07,5.17-2.85,.88-1.38,1.16-3.01,.8-4.6-.36-1.6-1.32-2.96-2.71-3.84-.98-.62-2.11-.94-3.27-.94-2.11,0-4.05,1.07-5.17,2.85-1.6,2.53-1.12,5.8,1.02,7.76,.02,.02,.05,.04,.07,.06-1.35,4.52-1.15,10.32-.04,14.42-.14,.13-.29,.25-.43,.4-.23,.25-.45,.53-.63,.82-.32,.5-.55,1.03-.71,1.58-3.37,.49-5.2,1.67-6.82,2.73-2.04,1.32-3.96,2.57-9.64,2.67-1.96-.23-3.55-.18-5.29-.12-1.43,.05-2.91,.11-4.85,0-1.33-.07-2.1-.88-3.46-2.42-1.8-2.05-4.22-4.65-9.37-5.02v4c3.29,.3,4.8,1.89,6.36,3.67,1.49,1.69,3.17,3.62,6.26,3.78,2.12,.11,3.76,.05,5.21,0,2.49-.09,4.45-.16,7.86,.68,2.61,.64,12.1,9.67,14.77,14.32-.11,.14-.22,.28-.31,.43-1.74,2.75-1.03,6.38,1.62,8.25,.07,.05,.15,.1,.28,.19,.98,.62,2.11,.95,3.27,.95,2.12,0,4.05-1.07,5.17-2.85,.88-1.37,1.16-3.01,.8-4.6-.36-1.6-1.32-2.96-2.71-3.84-.98-.62-2.11-.94-3.27-.94-.53,0-1.05,.07-1.54,.2-2.56-4.19-8.65-10.46-13.19-13.79,1.81-.63,3.05-1.43,4.21-2.19,1.43-.93,2.61-1.69,4.86-2.07Zm3.88-26.92c.39-.61,1.05-.98,1.78-.98,.4,0,.79,.11,1.12,.33,.48,.3,.81,.78,.94,1.33,.12,.55,.02,1.11-.28,1.58-.6,.95-1.94,1.27-2.91,.65l-.09-.06c-.92-.65-1.16-1.9-.56-2.85Zm0,23.46c.39-.61,1.05-.98,1.78-.98,.4,0,.79,.11,1.12,.33,.48,.3,.81,.77,.94,1.33,.12,.55,.02,1.11-.28,1.58-.6,.95-1.94,1.27-2.91,.65l-.09-.06c-.92-.65-1.16-1.9-.56-2.85Zm0,26.3c.39-.61,1.05-.98,1.78-.98,.4,0,.79,.11,1.12,.33,.48,.3,.81,.78,.94,1.33,.12,.55,.02,1.11-.28,1.58-.6,.95-1.94,1.27-2.91,.65l-.09-.06c-.92-.65-1.16-1.9-.56-2.85Z"/></g></g></g><g><path class="c" d="M68.73,48.47c-.47,.22-1.36,.56-2.62,.83-.13,.01-.26,.04-.39,.08-3.64,.68-10.08,.62-18.77-4.42,.43-1.35,.37-2.79-.17-4.12-.61-1.51-1.78-2.69-3.28-3.33-1.97-.84-4.27-.57-6,.7-.89,.65-1.58,1.53-2.01,2.54-1.31,3.1,.14,6.7,3.23,8.01,1.9,.8,4.11,.58,5.81-.58,5.61,3.32,10.48,4.79,14.48,5.28-1.2,1.29-1.78,2.6-2.25,3.93-.38,1.05-.58,1.57-1.22,2.09-.84,.66-3.1,1.48-5.08,2.07-.97-1.72-2.75-2.95-4.86-3.11-1.45-.12-2.9,.3-4.08,1.16-1.44,1.05-2.34,2.68-2.48,4.46-.13,1.63,.39,3.21,1.45,4.45,1.06,1.24,2.54,1.99,4.17,2.11,1.45,.11,2.9-.3,4.08-1.16h0c1.3-.95,2.16-2.36,2.42-3.93,1.9-.53,4.97-1.51,6.67-2.75,.08-.06,.17-.13,.24-.19,1.53-1.25,2.04-2.69,2.45-3.85,.64-1.78,1.25-3.47,6.35-5.52,1.27-.26,2.41-.93,3.12-1.21v-4l-1.27,.47Zm-25.67-4.52c-.15,.35-.39,.66-.7,.88-.61,.44-1.38,.53-2.07,.24-1.07-.45-1.57-1.7-1.11-2.77,.15-.35,.39-.65,.69-.88,.6-.44,1.38-.54,2.07-.24,.52,.22,.92,.63,1.13,1.15,.21,.52,.21,1.1-.01,1.61Zm3.32,22.27c-.29,.21-.76,.45-1.41,.4-.56-.04-1.07-.3-1.44-.73-.37-.43-.54-.97-.5-1.54,.05-.62,.36-1.18,.86-1.54,.29-.21,.76-.45,1.41-.4,1.16,.09,2.03,1.1,1.94,2.26-.05,.61-.36,1.17-.86,1.54Z"/><path d="M63.53,116.83c-.06-.04-.12-.08-.18-.12,.06,.04,.12,.08,.18,.12Z"/><path class="c" d="M63.96,117.62h-.01c-2.68-2.67-4.55-5.89-5.59-9.59,.19-.11,.37-.23,.54-.37,2.67-2.04,3.2-5.88,1.16-8.56-.7-.92-1.64-1.62-2.72-2.03-1.98-.74-4.16-.42-5.84,.86-2.68,2.04-3.21,5.88-1.16,8.57,.99,1.3,2.5,2.12,4.1,2.33,.69,2.55,1.71,4.91,3.06,7.07-2.63-.15-5.84,.24-9.05,2.05-.47-.36-1-.66-1.56-.87-1.98-.74-4.16-.41-5.83,.86-1.3,.98-2.13,2.41-2.36,4.02-.22,1.62,.2,3.23,1.19,4.54,.7,.92,1.64,1.62,2.72,2.02,1.98,.74,4.16,.41,5.83-.86,2.01-1.53,2.81-4.06,2.22-6.37,4.85-2.59,9.64-1,10.79-.55,2.89,2.79,6.01,4.14,8.55,5.25v-4c-1.92-.99-4.06-2.4-6.04-4.38Zm-17.94,6.86c-.58,.44-1.33,.55-2.01,.29-.37-.14-.7-.38-.94-.7-.34-.45-.49-1.01-.41-1.57,.08-.55,.36-1.04,.81-1.38,.89-.68,2.25-.51,2.95,.41l.07,.09c.63,.92,.43,2.18-.47,2.86Zm7.5-20.41c-.7-.93-.52-2.26,.4-2.96,.58-.44,1.34-.55,2.02-.3,.37,.14,.69,.38,.94,.7,.7,.93,.52,2.26-.4,2.96-.25,.19-.54,.32-.86,.38-.38,.08-.79,.04-1.16-.1-.37-.14-.7-.38-.94-.69Z"/><path d="M63.53,114.42c-.06-.04-.12-.08-.18-.12,.06,.04,.12,.08,.18,.12Z"/><g><path d="M63.53,116.83c-.06-.04-.12-.08-.18-.12,.06,.04,.12,.08,.18,.12Z"/><path class="c" d="M60.6,81.27c-1.35,1.54-2.12,2.35-3.45,2.42-1.93,.1-3.41,.05-4.84,0-1.43-.05-3.98-.82-7.98-2.6-4-1.78-12.07-9.65-14.74-14.29,.11-.14,.22-.28,.31-.43,1.74-2.75,1.02-6.37-1.61-8.23-.07-.05-.15-.11-.28-.19-.98-.62-2.11-.95-3.26-.95-2.11,0-4.04,1.07-5.16,2.84-.87,1.37-1.16,3-.8,4.59,.36,1.6,1.31,2.96,2.7,3.84,.98,.62,2.1,.94,3.26,.94,.53,0,1.04-.07,1.54-.19,2.55,4.18,10.25,12.06,13.16,13.76-1.81,.63-3.04,1.43-4.2,2.18-1.42,.93-2.61,1.69-4.85,2.06-.42-1.03-1.13-1.96-2.1-2.64-.07-.05-.15-.11-.28-.19-.98-.62-2.11-.95-3.26-.95-2.11,0-4.04,1.07-5.16,2.84-.87,1.37-1.16,3-.8,4.59,.36,1.6,1.31,2.96,2.7,3.84,.98,.62,2.1,.94,3.26,.94,.13,0,.25-.02,.37-.03,.71,3.15,.92,7.76-.03,11.25-.11,0-.22-.02-.34-.02-2.11,0-4.04,1.07-5.16,2.84-.87,1.37-1.16,3-.8,4.59,.36,1.6,1.31,2.96,2.7,3.84,.98,.62,2.1,.94,3.26,.94,2.11,0,4.04-1.06,5.16-2.84,1.6-2.53,1.12-5.79-1.02-7.75-.03-.02-.06-.04-.08-.07,1.35-4.51,1.14-10.28,.03-14.37,.15-.13,.3-.26,.44-.41,.23-.26,.45-.53,.63-.82,.32-.5,.55-1.03,.71-1.58,3.37-.49,5.19-1.67,6.81-2.72,1.8-1.17,3.52-2.28,7.84-2.58,2.4,1.04,4.93,1.88,6.91,1.96,1.71,.15,3.08,.11,5.2,0,3.08-.17,4.76-2.08,6.24-3.77,1.56-1.78,3.05-3.48,6.4-3.91v-4c-5.2,.5-7.61,3.22-9.4,5.27Zm-35.86-16.07c-.4,0-.79-.11-1.12-.32-.48-.3-.81-.77-.93-1.33-.12-.55-.02-1.1,.28-1.58,.6-.95,1.93-1.27,2.91-.65l.09,.06c.91,.65,1.16,1.89,.56,2.84-.38,.61-1.05,.98-1.78,.98Zm-1.12,25.92c-.48-.3-.81-.77-.93-1.33-.12-.55-.02-1.1,.28-1.58,.6-.95,1.93-1.27,2.91-.65l.09,.06c.91,.65,1.16,1.89,.56,2.84-.38,.61-1.05,.98-1.78,.98-.4,0-.79-.11-1.12-.32Zm2.9,22.76c-.38,.61-1.05,.98-1.78,.98-.4,0-.79-.11-1.12-.32-.48-.3-.81-.77-.93-1.33-.12-.55-.02-1.11,.28-1.58,.6-.95,1.93-1.27,2.91-.65l.09,.06c.91,.65,1.16,1.89,.56,2.84Z"/></g><g><path class="e" d="M68.73,45.47c-.47,.22-1.36,.56-2.62,.83-.13,.01-.26,.04-.39,.08-3.64,.68-10.08,.62-18.77-4.42,.43-1.35,.37-2.79-.17-4.12-.61-1.51-1.78-2.69-3.28-3.33-1.97-.84-4.27-.57-6,.7-.89,.65-1.58,1.53-2.01,2.54-1.31,3.1,.14,6.7,3.23,8.01,1.9,.8,4.11,.58,5.81-.58,5.61,3.32,10.48,4.79,14.48,5.28-1.2,1.29-1.78,2.6-2.25,3.93-.38,1.05-.58,1.57-1.22,2.09-.84,.66-3.1,1.48-5.08,2.07-.97-1.72-2.75-2.95-4.86-3.11-1.45-.12-2.9,.3-4.08,1.16-1.44,1.05-2.34,2.68-2.48,4.46-.13,1.63,.39,3.21,1.45,4.45,1.06,1.24,2.54,1.99,4.17,2.11,1.45,.11,2.9-.3,4.08-1.16h0c1.3-.95,2.16-2.36,2.42-3.93,1.9-.53,4.97-1.51,6.67-2.75,.08-.06,.17-.13,.24-.19,1.53-1.25,2.04-2.69,2.45-3.85,.64-1.78,1.25-3.47,6.35-5.52,1.27-.26,2.41-.93,3.12-1.21v-4l-1.27,.47Zm-25.67-4.52c-.15,.35-.39,.66-.7,.88-.61,.44-1.38,.53-2.07,.24-1.07-.45-1.57-1.7-1.11-2.77,.15-.35,.39-.65,.69-.88,.6-.44,1.38-.54,2.07-.24,.52,.22,.92,.63,1.13,1.15,.21,.52,.21,1.1-.01,1.61Zm3.32,22.27c-.29,.21-.76,.45-1.41,.4-.56-.04-1.07-.3-1.44-.73-.37-.43-.54-.97-.5-1.54,.05-.62,.36-1.18,.86-1.54,.29-.21,.76-.45,1.41-.4,1.16,.09,2.03,1.1,1.94,2.26-.05,.61-.36,1.17-.86,1.54Z"/><path class="e" d="M63.53,114.42c-.06-.04-.12-.08-.18-.12,.06,.04,.12,.08,.18,.12Z"/><path class="e" d="M63.96,114.62h-.01c-2.68-2.67-4.55-5.89-5.59-9.59,.19-.11,.37-.23,.54-.37,2.67-2.04,3.2-5.88,1.16-8.56-.7-.92-1.64-1.62-2.72-2.03-1.98-.74-4.16-.42-5.84,.86-2.68,2.04-3.21,5.88-1.16,8.57,.99,1.3,2.5,2.12,4.1,2.33,.69,2.55,1.71,4.91,3.06,7.07-2.63-.15-5.84,.24-9.05,2.05-.47-.36-1-.66-1.56-.87-1.98-.74-4.16-.41-5.83,.86-1.3,.98-2.13,2.41-2.36,4.02-.22,1.62,.2,3.23,1.19,4.54,.7,.92,1.64,1.62,2.72,2.02,1.98,.74,4.16,.41,5.83-.86,2.01-1.53,2.81-4.06,2.22-6.37,4.85-2.59,9.64-1,10.79-.55,2.89,2.79,6.01,4.14,8.55,5.25v-4c-1.92-.99-4.06-2.4-6.04-4.38Zm-17.94,6.86c-.58,.44-1.33,.55-2.01,.29-.37-.14-.7-.38-.94-.7-.34-.45-.49-1.01-.41-1.57,.08-.55,.36-1.04,.81-1.38,.89-.68,2.25-.51,2.95,.41l.07,.09c.63,.92,.43,2.18-.47,2.86Zm7.5-20.41c-.7-.93-.52-2.26,.4-2.96,.58-.44,1.34-.55,2.02-.3,.37,.14,.69,.38,.94,.7,.7,.93,.52,2.26-.4,2.96-.25,.19-.54,.32-.86,.38-.38,.08-.79,.04-1.16-.1-.37-.14-.7-.38-.94-.69Z"/><path class="e" d="M60.6,78.28c-1.35,1.54-2.12,2.35-3.45,2.42-1.93,.1-3.41,.05-4.84,0-1.43-.05-3.98-.82-7.98-2.6-4-1.78-12.07-9.65-14.74-14.29,.11-.14,.22-.28,.31-.43,1.74-2.75,1.02-6.37-1.61-8.23-.07-.05-.15-.11-.28-.19-.98-.62-2.11-.95-3.26-.95-2.11,0-4.04,1.07-5.16,2.84-.87,1.37-1.16,3-.8,4.59,.36,1.6,1.31,2.96,2.7,3.84,.98,.62,2.1,.94,3.26,.94,.53,0,1.04-.07,1.54-.19,2.55,4.18,10.25,12.06,13.16,13.76-1.81,.63-3.04,1.43-4.2,2.18-1.42,.93-2.61,1.69-4.85,2.06-.42-1.03-1.13-1.96-2.1-2.64-.07-.05-.15-.11-.28-.19-.98-.62-2.11-.95-3.26-.95-2.11,0-4.04,1.07-5.16,2.84-.87,1.37-1.16,3-.8,4.59,.36,1.6,1.31,2.96,2.7,3.84,.98,.62,2.1,.94,3.26,.94,.13,0,.25-.02,.37-.03,.71,3.15,.92,7.76-.03,11.25-.11,0-.22-.02-.34-.02-2.11,0-4.04,1.07-5.16,2.84-.87,1.37-1.16,3-.8,4.59,.36,1.6,1.31,2.96,2.7,3.84,.98,.62,2.1,.94,3.26,.94,2.11,0,4.04-1.06,5.16-2.84,1.6-2.53,1.12-5.79-1.02-7.75-.03-.02-.06-.04-.08-.07,1.35-4.51,1.14-10.28,.03-14.37,.15-.13,.3-.26,.44-.41,.23-.26,.45-.53,.63-.82,.32-.5,.55-1.03,.71-1.58,3.37-.49,5.19-1.67,6.81-2.72,1.8-1.17,3.52-2.28,7.84-2.58,2.4,1.04,4.93,1.88,6.91,1.96,1.71,.15,3.08,.11,5.2,0,3.08-.16,4.76-2.08,6.24-3.77,1.56-1.78,3.05-3.46,6.4-3.89v-4.02c-5.2,.5-7.61,3.22-9.4,5.27ZM24.73,62.21c-.4,0-.79-.11-1.12-.32-.48-.3-.81-.77-.93-1.33-.12-.55-.02-1.1,.28-1.58,.6-.95,1.93-1.27,2.91-.65l.09,.06c.91,.65,1.16,1.89,.56,2.84-.38,.61-1.05,.98-1.78,.98Zm-1.12,25.92c-.48-.3-.81-.77-.93-1.33-.12-.55-.02-1.1,.28-1.58,.6-.95,1.93-1.27,2.91-.65l.09,.06c.91,.65,1.16,1.89,.56,2.84-.38,.61-1.05,.98-1.78,.98-.4,0-.79-.11-1.12-.32Zm2.9,22.76c-.38,.61-1.05,.98-1.78,.98-.4,0-.79-.11-1.12-.32-.48-.3-.81-.77-.93-1.33-.12-.55-.02-1.11,.28-1.58,.6-.95,1.93-1.27,2.91-.65l.09,.06c.91,.65,1.16,1.89,.56,2.84Z"/></g></g></g></g></g></svg>