<?xml version="1.0" encoding="utf-8"?>
<!DOCTYPE svg PUBLIC "-//W3C//DTD SVG 1.1//EN" "http://www.w3.org/Graphics/SVG/1.1/DTD/svg11.dtd">
<svg version="1.1" id="Livello_1" xmlns="http://www.w3.org/2000/svg" xmlns:xlink="http://www.w3.org/1999/xlink" x="0px" y="0px"
	 width="250px" height="250px" viewBox="0 0 1920 1920" enable-background="new 0 0 1920 1920" xml:space="preserve">
	<g>
		<ellipse fill="#FFFFFF" cx="950" cy="650" rx="300" ry="300"/>
	</g>
    <path transform="translate(355.85,154) scale(0.9, 0.95)" fill="#E7E8E9" d="M646.99,111.732c-319.205,0-577.97,258.766-577.97,577.97c0,148.603,56.102,284.089,148.256,386.484
<path transform="translate(355.85,14) scale(0.9, 0.95)" fill="#E7E8E9" d="M646.99,111.732c-319.205,0-577.97,258.766-577.97,577.97c0,148.603,56.102,284.089,148.256,386.484
	l380.702,496.748c26.957,35.174,71.069,35.174,98.026,0l380.702-496.749c92.154-102.395,148.256-237.881,148.256-386.484
	C1224.961,370.498,966.195,111.732,646.99,111.732z M646.99,874.156c-133.438,0-241.61-108.173-241.61-241.61
	c0-133.438,108.173-241.61,241.61-241.61c133.438,0,241.61,108.172,241.61,241.61C888.601,765.983,780.428,874.156,646.99,874.156z"
	/>
</svg>
