<?xml version="1.0" encoding="utf-8"?>
<!-- Generator: Adobe Illustrator 16.0.0, SVG Export Plug-In . SVG Version: 6.00 Build 0)  -->
<!DOCTYPE svg PUBLIC "-//W3C//DTD SVG 1.1//EN" "http://www.w3.org/Graphics/SVG/1.1/DTD/svg11.dtd" [
	<!ENTITY ns_extend "http://ns.adobe.com/Extensibility/1.0/">
	<!ENTITY ns_ai "http://ns.adobe.com/AdobeIllustrator/10.0/">
	<!ENTITY ns_graphs "http://ns.adobe.com/Graphs/1.0/">
	<!ENTITY ns_vars "http://ns.adobe.com/Variables/1.0/">
	<!ENTITY ns_imrep "http://ns.adobe.com/ImageReplacement/1.0/">
	<!ENTITY ns_sfw "http://ns.adobe.com/SaveForWeb/1.0/">
	<!ENTITY ns_custom "http://ns.adobe.com/GenericCustomNamespace/1.0/">
	<!ENTITY ns_adobe_xpath "http://ns.adobe.com/XPath/1.0/">
]>
<svg version="1.1" id="Layer_1" xmlns:x="&ns_extend;" xmlns:i="&ns_ai;" xmlns:graph="&ns_graphs;"
	 xmlns="http://www.w3.org/2000/svg" xmlns:xlink="http://www.w3.org/1999/xlink" x="0px" y="0px" width="215px" height="32px"
	 viewBox="0 0 215 32" enable-background="new 0 0 215 32" xml:space="preserve">
<metadata>
	<sfw  xmlns="&ns_sfw;">
		<slices></slices>
		<sliceSourceBounds  height="30.492" width="211.752" y="-916.492" x="3147" bottomLeftOrigin="true"></sliceSourceBounds>
	</sfw>
</metadata>
<g>
</g>
<g>
	<g>
		<polygon fill="#36B5B2" points="14,1 2,8 2,22 14,29 		"/>
		<polygon fill="#EB743B" points="15,1 27,8 27,22 15,29 		"/>
	</g>
	<g>
		<path fill="#36B5B2" d="M50.303,18.231c-0.091,2.182-0.812,3.901-2.163,5.156c-1.352,1.256-3.136,1.884-5.353,1.884
			c-2.397,0-4.283-0.851-5.657-2.553s-2.062-4.103-2.062-7.202v-0.831c0-2.985,0.696-5.353,2.087-7.1
			c1.392-1.747,3.251-2.621,5.581-2.621c2.217,0,3.987,0.628,5.311,1.884s2.086,3.021,2.29,5.292h-4.818
			c0-2.148-0.927-3.223-2.782-3.223c-0.973,0-1.688,0.454-2.146,1.362c-0.458,0.909-0.693,2.317-0.704,4.225v1.073
			c0,2.101,0.223,3.583,0.67,4.446c0.446,0.862,1.19,1.294,2.23,1.294c0.916,0,1.595-0.246,2.036-0.737
			c0.441-0.492,0.667-1.275,0.679-2.35H50.303z"/>
		<path fill="#36B5B2" d="M61.109,12.374l-1.467-0.125c-1.207,0-2.023,0.53-2.45,1.592V25H52.76V8.113h4.167l0.125,1.826
			c0.697-1.426,1.659-2.139,2.888-2.139c0.499,0,0.905,0.068,1.217,0.203L61.109,12.374z"/>
		<path fill="#36B5B2" d="M63.373,3.743c0-0.687,0.219-1.249,0.655-1.686c0.438-0.438,1.02-0.655,1.748-0.655
			s1.312,0.218,1.748,0.655c0.438,0.437,0.656,0.999,0.656,1.686c0,0.677-0.217,1.238-0.648,1.686S66.516,6.1,65.776,6.1
			c-0.738,0-1.324-0.224-1.756-0.671S63.373,4.42,63.373,3.743z M68.009,25h-4.433V8.113h4.433V25z"/>
		<path fill="#36B5B2" d="M76.561,3.962v4.151h2.263v3.309h-2.263v8.394c0,0.667,0.091,1.126,0.273,1.376
			c0.182,0.25,0.533,0.375,1.054,0.375c0.426,0,0.774-0.036,1.045-0.109l-0.031,3.434c-0.749,0.281-1.561,0.422-2.435,0.422
			c-2.851,0-4.292-1.636-4.323-4.906v-8.984h-1.95V8.113h1.95V3.962H76.561z"/>
		<path fill="#36B5B2" d="M81.243,3.743c0-0.687,0.219-1.249,0.655-1.686c0.438-0.438,1.02-0.655,1.748-0.655
			s1.312,0.218,1.748,0.655c0.438,0.437,0.656,0.999,0.656,1.686c0,0.677-0.217,1.238-0.648,1.686S84.386,6.1,83.646,6.1
			c-0.738,0-1.324-0.224-1.756-0.671S81.243,4.42,81.243,3.743z M85.879,25h-4.433V8.113h4.433V25z"/>
		<path fill="#36B5B2" d="M88.703,16.01c0-2.768,0.463-4.827,1.389-6.18s2.3-2.029,4.12-2.029c1.478,0,2.653,0.666,3.527,1.998
			l0.281-1.686h3.854v23.379h-4.432v-7.803c-0.822,1.082-1.904,1.623-3.247,1.623c-1.779,0-3.134-0.689-4.065-2.068
			s-1.407-3.363-1.428-5.954V16.01z M93.136,17.122c0,1.644,0.177,2.813,0.53,3.51s0.957,1.044,1.811,1.044
			c0.895,0,1.55-0.351,1.967-1.052v-8.088c-0.417-0.732-1.067-1.099-1.951-1.099c-0.843,0-1.443,0.34-1.803,1.021
			s-0.544,1.816-0.554,3.407V17.122z"/>
		<path fill="#36B5B2" d="M113.487,23.455c-0.915,1.238-2.144,1.857-3.683,1.857c-1.551,0-2.727-0.533-3.527-1.6
			c-0.802-1.067-1.202-2.62-1.202-4.659V8.113h4.417v11.05c0.021,1.644,0.567,2.466,1.639,2.466c1.01,0,1.737-0.438,2.186-1.312
			V8.113h4.447V25h-4.151L113.487,23.455z"/>
		<path fill="#36B5B2" d="M127.736,25.313c-2.269,0-4.037-0.677-5.307-2.029s-1.903-3.288-1.903-5.806v-1.343
			c0-2.663,0.582-4.718,1.748-6.164c1.165-1.446,2.835-2.17,5.01-2.17c2.122,0,3.72,0.678,4.791,2.034
			c1.071,1.355,1.618,3.363,1.639,6.022v2.166h-8.787c0.063,1.265,0.339,2.19,0.827,2.774c0.489,0.585,1.244,0.878,2.264,0.878
			c1.478,0,2.71-0.516,3.699-1.545l1.731,2.669c-0.541,0.749-1.326,1.354-2.356,1.817S128.943,25.313,127.736,25.313z
			 M124.958,14.949h4.417v-0.41c-0.021-1.018-0.188-1.789-0.499-2.314c-0.313-0.524-0.854-0.787-1.623-0.787
			c-0.771,0-1.329,0.278-1.678,0.835C125.227,12.828,125.021,13.721,124.958,14.949z"/>
		<path fill="#EB743B" d="M136.164,25V5.236h6.718c2.308,0,4.068,0.467,5.285,1.399c1.215,0.934,1.823,2.288,1.823,4.063
			c0,1.007-0.221,1.883-0.662,2.629c-0.44,0.747-1.091,1.296-1.95,1.646c0.927,0.271,1.646,0.789,2.154,1.553
			s0.764,1.699,0.764,2.808c0,1.968-0.571,3.404-1.714,4.309c-1.143,0.905-2.861,1.357-5.157,1.357H136.164z M140.965,13.447h2.308
			c1.277-0.034,1.917-0.713,1.917-2.036c0-0.78-0.159-1.337-0.476-1.671c-0.316-0.333-0.803-0.5-1.459-0.5h-2.29V13.447z
			 M140.965,16.789v4.258h2.46c0.667,0,1.179-0.181,1.535-0.545c0.356-0.362,0.534-0.862,0.534-1.499
			c0-1.43-0.576-2.168-1.729-2.214H140.965z"/>
		<path fill="#EB743B" d="M161.561,12.374l-1.467-0.125c-1.207,0-2.023,0.53-2.45,1.592V25h-4.433V8.113h4.167l0.125,1.826
			c0.697-1.426,1.659-2.139,2.888-2.139c0.499,0,0.905,0.068,1.217,0.203L161.561,12.374z"/>
		<path fill="#EB743B" d="M171.378,25c-0.125-0.26-0.25-0.697-0.375-1.311c-0.791,1.082-1.862,1.623-3.215,1.623
			c-1.415,0-2.589-0.469-3.52-1.405c-0.932-0.937-1.396-2.148-1.396-3.636c0-1.77,0.564-3.138,1.693-4.105s2.754-1.461,4.877-1.482
			h1.342v-1.357c0-0.76-0.13-1.296-0.39-1.607c-0.261-0.313-0.64-0.469-1.14-0.469c-1.103,0-1.654,0.646-1.654,1.936h-4.417
			c0-1.561,0.586-2.849,1.756-3.863c1.171-1.015,2.65-1.521,4.44-1.521c1.852,0,3.285,0.481,4.3,1.443
			c1.015,0.963,1.521,2.339,1.521,4.129v7.943c0.021,1.457,0.229,2.597,0.625,3.418V25H171.378z M168.771,21.848
			c0.488,0,0.905-0.099,1.248-0.297c0.344-0.197,0.599-0.432,0.765-0.702v-3.512h-1.061c-0.749,0-1.34,0.239-1.771,0.718
			s-0.647,1.119-0.647,1.92C167.305,21.223,167.793,21.848,168.771,21.848z"/>
		<path fill="#EB743B" d="M178.401,3.743c0-0.687,0.219-1.249,0.655-1.686c0.438-0.438,1.02-0.655,1.748-0.655
			s1.312,0.218,1.748,0.655c0.438,0.437,0.656,0.999,0.656,1.686c0,0.677-0.217,1.238-0.648,1.686S181.544,6.1,180.805,6.1
			c-0.738,0-1.324-0.224-1.756-0.671S178.401,4.42,178.401,3.743z M183.037,25h-4.433V8.113h4.433V25z"/>
		<path fill="#EB743B" d="M190.496,8.113l0.125,1.67c0.999-1.321,2.305-1.982,3.918-1.982c2.902,0,4.396,2.034,4.479,6.103V25
			h-4.432V14.231c0-0.958-0.144-1.652-0.43-2.084s-0.788-0.647-1.506-0.647c-0.802,0-1.426,0.411-1.873,1.232V25h-4.433V8.113
			H190.496z"/>
		<path fill="#EB743B" d="M207.071,21.363h6.681V25h-11.924v-2.739l6.523-10.465h-6.368V8.113h11.675v2.669L207.071,21.363z"/>
	</g>
</g>
</svg>
