<?xml version="1.0" encoding="UTF-8" standalone="no"?>
<!-- Generator: Adobe Illustrator 16.0.0, SVG Export Plug-In . SVG Version: 6.00 Build 0)  -->

<svg
   xmlns:ns="&amp;ns_sfw;"
   xmlns:dc="http://purl.org/dc/elements/1.1/"
   xmlns:cc="http://creativecommons.org/ns#"
   xmlns:rdf="http://www.w3.org/1999/02/22-rdf-syntax-ns#"
   xmlns:svg="http://www.w3.org/2000/svg"
   xmlns="http://www.w3.org/2000/svg"
   xmlns:sodipodi="http://sodipodi.sourceforge.net/DTD/sodipodi-0.dtd"
   xmlns:inkscape="http://www.inkscape.org/namespaces/inkscape"
   version="1.1"
   id="Layer_1"
   x="0px"
   y="0px"
   width="27px"
   height="30px"
   viewBox="0 0 27 30"
   enable-background="new 0 0 27 30"
   xml:space="preserve"
   inkscape:version="0.91 r13725"
   sodipodi:docname="replace_boring.svg"><defs
     id="defs17" /><sodipodi:namedview
     pagecolor="#ffffff"
     bordercolor="#666666"
     borderopacity="1"
     objecttolerance="10"
     gridtolerance="10"
     guidetolerance="10"
     inkscape:pageopacity="0"
     inkscape:pageshadow="2"
     inkscape:window-width="1216"
     inkscape:window-height="792"
     id="namedview15"
     showgrid="false"
     inkscape:zoom="7.8666667"
     inkscape:cx="23.542373"
     inkscape:cy="9.9152542"
     inkscape:window-x="0"
     inkscape:window-y="23"
     inkscape:window-maximized="0"
     inkscape:current-layer="Layer_1" /><metadata
     id="metadata3"><ns:sfw><ns:slices /><ns:sliceSourceBounds
         height="28"
         width="25"
         y="-914"
         x="2963"
         bottomLeftOrigin="true" /></ns:sfw><rdf:RDF><cc:Work
         rdf:about=""><dc:format>image/svg+xml</dc:format><dc:type
           rdf:resource="http://purl.org/dc/dcmitype/StillImage" /><dc:title></dc:title></cc:Work></rdf:RDF></metadata><g
     id="g5" /><g
     id="g7"><g
       id="g9"><polygon
         fill="#36B5B2"
         points="13,1 1,8 1,22 13,29   "
         id="polygon11" /><polygon
         fill="#EB743B"
         points="14,1 26,8 26,22 14,29   "
         id="polygon13" /></g></g><path
     style="opacity:1;fill:#d3d3d3;fill-opacity:1;stroke:#d3d3d3;stroke-width:0.609;stroke-linecap:round;stroke-linejoin:round;stroke-miterlimit:4;stroke-dasharray:none;stroke-opacity:1"
     d="m 14.110169,15 c 0,-13.1659713 0.01121,-13.8587809 0.222458,-13.743938 0.122352,0.066517 2.768009,1.6072942 5.879237,3.4239502 l 5.65678,3.3030111 0,7.0169767 0,7.016977 -5.65678,3.30301 c -3.111228,1.816657 -5.756885,3.357435 -5.879237,3.423951 C 14.121383,28.858781 14.110169,28.165972 14.110169,15 Z"
     id="path4169"
     inkscape:connector-curvature="0" /><path
     style="opacity:1;fill:#d3d3d3;fill-opacity:1;stroke:#d3d3d3;stroke-width:0.477;stroke-linecap:round;stroke-linejoin:round;stroke-miterlimit:4;stroke-dasharray:none;stroke-opacity:1"
     d="m 6.8961864,25.393237 -5.8792372,-3.441872 0,-6.951954 0,-6.9519538 5.8625794,-3.419915 c 3.2244184,-1.8809533 5.9129784,-3.4389829 5.9745764,-3.462288 0.06416,-0.024273 0.111997,5.8806521 0.111997,13.8241528 0,7.626589 -0.0429,13.86184 -0.09534,13.856114 -0.05244,-0.0057 -2.740996,-1.559254 -5.9745766,-3.452284 z"
     id="path4171"
     inkscape:connector-curvature="0" /></svg>